<svg id="Capa_1" enable-background="new 0 0 497 497" height="512" viewBox="0 0 497 497" width="512" xmlns="http://www.w3.org/2000/svg"><g><path d="m50.267 82.833h-34.267c-8.837 0-16-7.163-16-16v-50.833c0-8.837 7.163-16 16-16h34.267c8.837 0 16 7.163 16 16v50.833c0 8.837-7.164 16-16 16z" fill="#ff7045"/><g><path d="m99.4 48.917h-33.133c-4.142 0-7.5-3.357-7.5-7.5s3.358-7.5 7.5-7.5h33.133c4.142 0 7.5 3.357 7.5 7.5s-3.358 7.5-7.5 7.5z" fill="#9ca1af"/></g><g><path d="m364.467 48.917h-231.934c-4.142 0-7.5-3.357-7.5-7.5s3.358-7.5 7.5-7.5h231.934c4.142 0 7.5 3.357 7.5 7.5s-3.358 7.5-7.5 7.5z" fill="#9ca1af"/></g><g><path d="m430.733 48.917h-33.133c-4.142 0-7.5-3.357-7.5-7.5s3.358-7.5 7.5-7.5h33.133c4.142 0 7.5 3.357 7.5 7.5s-3.358 7.5-7.5 7.5z" fill="#9ca1af"/></g><path d="m373.231 16.571c-13.93-.264-25.331 11.474-25.331 25.405v90.557c0 9.149-7.417 16.567-16.567 16.567h-49.7-66.267-49.7c-9.15 0-16.567-7.417-16.567-16.567v-90.557c0-13.932-11.401-25.669-25.331-25.405-13.501.257-24.368 11.282-24.368 24.846v91.117c0 34.666 26.755 63.199 60.701 66.035 3.134.262 5.566 2.836 5.566 5.981v258.663c0 18.579 15.204 34.137 33.779 33.782 18.001-.344 32.487-15.044 32.487-33.127v-132.534h33.133v131.879c0 18.579 15.204 34.137 33.779 33.782 18.001-.344 32.487-15.044 32.487-33.127v-259.318c0-3.145 2.432-5.719 5.566-5.981 33.945-2.836 60.701-31.37 60.701-66.035v-91.117c.001-13.564-10.866-24.589-24.368-24.846z" fill="#ffdaaa"/><g fill="#ffbe8a"><path d="m126.1 41.977v90.557c0 9.149 7.417 16.566 16.567 16.566h23c-9.15 0-16.567-7.417-16.567-16.566v-90.557c0-13.932-11.401-25.67-25.331-25.405-4.017.076-7.797 1.112-11.131 2.877 7.991 4.285 13.462 12.878 13.462 22.528z"/><path d="m373.231 16.571c-4.282-.081-8.323.975-11.869 2.877 7.872 4.17 13.239 12.439 13.239 21.968v91.117c0 34.665-26.755 63.199-60.701 66.035-3.134.262-5.566 2.836-5.566 5.981v259.317c0 14.211-8.949 26.329-21.518 31.035 3.743 1.42 7.798 2.173 12.031 2.092 18.001-.344 32.487-15.044 32.487-33.127v-259.316c0-3.145 2.432-5.719 5.566-5.981 33.945-2.836 60.701-31.369 60.701-66.035v-91.117c-.001-13.564-10.868-24.589-24.37-24.846z"/><path d="m208.933 463.867c0 14.211-8.949 26.329-21.518 31.035 3.743 1.42 7.798 2.173 12.031 2.092 18.001-.344 32.487-15.044 32.487-33.127v-132.534h-23z"/></g><circle cx="248.5" cy="99.4" fill="#ffdaaa" r="49.7"/><circle cx="248.5" cy="99.4" fill="#ffdaaa" r="49.7"/><path d="m248.5 49.7c-3.96 0-7.807.477-11.5 1.352 21.901 5.191 38.2 24.86 38.2 48.348s-16.299 43.157-38.2 48.348c3.693.875 7.54 1.352 11.5 1.352 27.448 0 49.7-22.252 49.7-49.7s-22.252-49.7-49.7-49.7z" fill="#ffbe8a"/><g><path d="m149.1 90.333h-49.7c-4.143 0-7.5-3.357-7.5-7.5s3.357-7.5 7.5-7.5h49.7c4.143 0 7.5 3.357 7.5 7.5s-3.358 7.5-7.5 7.5z" fill="#19cffc"/></g><g><path d="m397.6 90.333h-49.7c-4.143 0-7.5-3.357-7.5-7.5s3.357-7.5 7.5-7.5h49.7c4.143 0 7.5 3.357 7.5 7.5s-3.358 7.5-7.5 7.5z" fill="#19cffc"/></g><path d="m165.667 281.634h165.667v-49.7c-27.448 0-49.7-22.251-49.7-49.7v-33.134h-66.267v33.133c0 27.449-22.251 49.7-49.7 49.7z" fill="#f2f6fc"/><path d="m231.933 364.467h-66.266v-82.833h165.666v82.833h-66.266v-33.133h-33.134z" fill="#19cffc"/><path d="m173.95 198.8h-12.624c2.52.739 4.34 3.029 4.34 5.749v9.251h8.283c4.143 0 7.5-3.357 7.5-7.5s-3.356-7.5-7.499-7.5z" fill="#ffbe8a"/><g><path d="m281.634 338.833h-66.268c-4.143 0-7.5-3.357-7.5-7.5s3.357-7.5 7.5-7.5h66.268c4.143 0 7.5 3.357 7.5 7.5s-3.358 7.5-7.5 7.5z" fill="#27ade2"/></g><path d="m308.333 281.633h23v-49.7c-8.302 0-16.121-2.046-23-5.645z" fill="#cdd2e1"/><path d="m308.333 281.633h23v82.833h-23z" fill="#27ade2"/><path d="m231.933 463.867v-33.134h-66.267v32.479c0 18.579 15.204 34.137 33.779 33.782 18.002-.344 32.488-15.044 32.488-33.127z" fill="#9ca1af"/><path d="m265.067 463.212c0 18.579 15.204 34.137 33.779 33.782 18.001-.344 32.487-15.044 32.487-33.127v-33.134h-66.267v32.479z" fill="#9ca1af"/><path d="m208.933 463.867c0 14.211-8.949 26.329-21.518 31.035.441.167.887.324 1.336.472.044.015.088.03.132.044.415.136.835.261 1.257.38.09.025.179.05.269.074.388.106.78.204 1.173.295.135.031.271.06.407.09.359.079.72.152 1.083.219.183.033.367.062.551.092.327.054.654.106.984.15.236.031.474.055.712.081.287.031.574.065.863.089.312.025.627.04.942.057.224.012.447.029.672.037.547.017 1.096.023 1.65.012 18.001-.344 32.487-15.044 32.487-33.127v-33.134h-23z" fill="#717891"/><path d="m308.333 463.867c0 14.211-8.949 26.329-21.518 31.035.441.167.887.324 1.337.472.044.014.087.029.131.044.415.135.835.261 1.257.38.09.025.179.05.269.074.388.106.78.204 1.173.295.135.031.271.06.406.09.359.079.72.152 1.083.219.183.033.367.062.551.092.327.054.654.106.984.15.236.031.474.055.712.081.287.031.574.065.863.089.312.025.627.04.942.057.224.012.447.029.672.037.547.017 1.097.023 1.65.012 18.001-.344 32.487-15.044 32.487-33.127v-33.134h-23v33.134z" fill="#717891"/><path d="m50.267 0h-23c8.837 0 16 7.164 16 16v50.833c0 8.837-7.163 16-16 16h23c8.837 0 16-7.163 16-16v-50.833c0-8.836-7.164-16-16-16z" fill="#f44945"/><path d="m446.733 0h34.267c8.837 0 16 7.163 16 16v50.833c0 8.837-7.163 16-16 16h-34.267c-8.836 0-16-7.163-16-16v-50.833c0-8.837 7.164-16 16-16z" fill="#ff7045"/><path d="m480.998 0h-23c8.837 0 16 7.164 16 16v50.833c0 8.837-7.163 16-16 16h23c8.837 0 16-7.163 16-16v-50.833c0-8.836-7.163-16-16-16z" fill="#f44945"/></g></svg>