<svg height="512pt" viewBox="-17 0 512 512" width="512pt" xmlns="http://www.w3.org/2000/svg"><g fill="#ffa754"><path d="m72.402344 51.71875c-4.28125 0-7.757813 3.472656-7.757813 7.757812v129.292969c0 4.28125 3.476563 7.753907 7.757813 7.753907 4.285156 0 7.757812-3.472657 7.757812-7.753907v-129.292969c0-4.285156-3.472656-7.757812-7.757812-7.757812zm0 0"/><path d="m21.207031 72.925781c-3.03125 3.027344-3.03125 7.941407 0 10.96875l91.421875 91.425781c3.03125 3.027344 7.945313 3.027344 10.972656 0 3.03125-3.03125 3.03125-7.941406 0-10.972656l-91.425781-91.421875c-3.027343-3.03125-7.941406-3.03125-10.96875 0zm0 0"/><path d="m0 124.121094c0 4.285156 3.472656 7.757812 7.757812 7.757812h129.292969c4.285157 0 7.757813-3.472656 7.757813-7.757812s-3.472656-7.757813-7.757813-7.757813h-129.292969c-4.285156 0-7.757812 3.472657-7.757812 7.757813zm0 0"/><path d="m21.207031 175.316406c3.03125 3.03125 7.941407 3.03125 10.972657 0l91.421874-91.421875c3.03125-3.03125 3.03125-7.941406 0-10.972656-3.027343-3.027344-7.941406-3.027344-10.972656 0l-91.421875 91.425781c-3.03125 3.03125-3.03125 7.941406 0 10.96875zm0 0"/></g><path d="m346.503906 248.25v116.578125l-45.226562 67.339844c-.859375 1.277343-1.316406 2.785156-1.316406 4.324219v31.03125c0 4.285156 3.472656 7.757812 7.757812 7.757812s7.757812-3.472656 7.757812-7.757812v-28.667969l45.226563-67.339844c.859375-1.277344 1.316406-2.78125 1.316406-4.324219v-118.941406zm0 0" fill="#353535"/><path d="m345.1875 432.167969-45.226562-67.339844v-116.585937h-15.515626v118.949218c0 1.539063.457032 3.046875 1.316407 4.324219l45.226562 67.339844v28.667969c0 4.285156 3.472657 7.757812 7.757813 7.757812s7.757812-3.472656 7.757812-7.757812v-31.03125c0-1.539063-.457031-3.046876-1.316406-4.324219zm0 0" fill="#4f4f4f"/><path d="m323.230469 93.089844v-93.089844c25.707031 0 46.546875 20.839844 46.546875 46.546875s-20.839844 46.542969-46.546875 46.542969zm0 0" fill="#c27749"/><path d="m338.746094 46.546875c0 25.707031-6.945313 46.542969-15.515625 46.542969-25.703125 0-46.542969-20.835938-46.542969-46.542969s20.839844-46.546875 46.542969-46.546875c8.570312 0 15.515625 20.839844 15.515625 46.546875zm0 0" fill="#e18f4e"/><path d="m323.230469 217.210938v77.578124c25.707031 0 46.546875-20.839843 46.546875-46.546874zm0 0" fill="#353535"/><path d="m338.746094 248.242188-15.515625-31.03125-46.542969 31.03125c0 25.707031 20.839844 46.546874 46.542969 46.546874 8.570312 0 15.515625-20.839843 15.515625-46.546874zm0 0" fill="#4f4f4f"/><path d="m369.777344 248.25h-31.03125l-31.027344-93.121094 62.058594 62.09375zm0 0" fill="#ffb4a9"/><path d="m338.746094 248.25h-62.058594v-31.027344l62.058594-62.09375zm0 0" fill="#ffd9d4"/><path d="m364.605469 124.152344h-31.03125l-29.214844 46.535156 34.386719 46.535156h31.03125c8.304687-6.238281 14.078125-15.660156 15.515625-26.449218v-45.933594c0-11.429688-9.257813-20.6875-20.6875-20.6875zm0 0" fill="#ff1b7c"/><path d="m333.574219 124.152344h-51.714844c-11.429687 0-20.6875 9.257812-20.6875 20.6875v45.933594c1.4375 10.789062 7.210937 20.210937 15.515625 26.449218h62.058594c8.308594-6.238281 14.078125-15.660156 15.515625-26.449218v-45.933594c0-11.429688-9.257813-20.6875-20.6875-20.6875zm0 0" fill="#ff4996"/><path d="m268.929688 46.546875c-12.855469 0-23.273438 10.417969-23.273438 23.269531 0 12.855469 10.421875 23.273438 23.273438 23.273438h54.300781v-46.542969zm0 0" fill="#c27749"/><path d="m377.535156 46.546875h-54.304687v46.542969h54.304687c12.855469 0 23.273438-10.417969 23.273438-23.273438 0-12.851562-10.417969-23.269531-23.273438-23.269531zm0 0" fill="#a45e43"/><path d="m337.808594 30.5625-14.578125 62.527344c25.707031 0 46.546875-20.835938 46.546875-46.542969zm0 0" fill="#ffb4a9"/><path d="m338.746094 46.546875c0-5.617187-.332032-11-.9375-15.984375l-42.507813-21.25c-11.300781 8.492188-18.613281 22.007812-18.613281 37.234375 0 25.707031 20.839844 46.542969 46.542969 46.542969 8.570312 0 15.515625-20.835938 15.515625-46.542969zm0 0" fill="#ffd9d4"/><path d="m323.230469 0 15.414062 41.199219c9.734375 3.457031 20.210938 5.347656 31.132813 5.347656 0-25.707031-20.839844-46.546875-46.546875-46.546875zm0 0" fill="#a45e43"/><path d="m323.230469 0c-10.476563 0-20.148438 3.464844-27.929688 9.3125 10.894531 14.5 25.929688 25.707031 43.339844 31.886719-.882813-23.1875-7.441406-41.199219-15.410156-41.199219zm0 0" fill="#c27749"/><path d="m72.402344 77.574219v93.09375c25.707031 0 46.546875-20.839844 46.546875-46.546875 0-25.707032-20.839844-46.546875-46.546875-46.546875zm0 0" fill="#ffa754"/><path d="m87.917969 124.121094c0-25.707032-6.945313-46.546875-15.515625-46.546875-25.703125 0-46.542969 20.839843-46.542969 46.546875 0 25.707031 20.839844 46.546875 46.542969 46.546875 8.570312 0 15.515625-20.839844 15.515625-46.546875zm0 0" fill="#ffcb63"/><path d="m184.113281 116.363281h278.238281v15.515625h-278.238281zm0 0" fill="#a45e43"/><path d="m447.355469 435.492188 15.511719-31.03125 15.515624 31.03125v76.507812h-31.027343zm0 0" fill="#ccc"/><path d="m168.082031 435.492188 15.515625-31.03125 15.511719 31.03125v76.507812h-31.027344zm0 0" fill="#ccc"/><path d="m447.355469 69.816406h31.027343v365.675782h-31.027343zm0 0" fill="#e18f4e"/><path d="m168.082031 69.816406h31.027344v365.675782h-31.027344zm0 0" fill="#e18f4e"/><path d="m416.324219 209.453125c-4.285157 0-7.757813-3.472656-7.757813-7.757813v-87.917968c0-4.285156 3.472656-7.757813 7.757813-7.757813 4.285156 0 7.757812 3.472657 7.757812 7.757813v87.917968c0 4.285157-3.472656 7.757813-7.757812 7.757813zm0 0" fill="#ffb4a9"/><path d="m230.140625 209.453125c-4.285156 0-7.757813-3.472656-7.757813-7.757813v-87.917968c0-4.285156 3.472657-7.757813 7.757813-7.757813s7.757813 3.472657 7.757813 7.757813v87.917968c0 4.285157-3.472657 7.757813-7.757813 7.757813zm0 0" fill="#ffd9d4"/></svg>