<?xml version="1.0"?>
<svg xmlns="http://www.w3.org/2000/svg" viewBox="0 0 512 512" width="512" height="512"><g id="Fill_out_line" data-name="Fill out line"><path d="M480,168.82007A29.135,29.135,0,0,1,467.57,192.7L438.22,213.25A71.9913,71.9913,0,0,1,376,223.12012a69.73418,69.73418,0,0,1-6.57-2.36011c-.01-.01-.03-.01-.04-.02A34.07641,34.07641,0,0,1,360,223.6001v15.08984a88.22488,88.22488,0,0,1-31.74,67.76,88.18442,88.18442,0,0,0-24.6,33.01L302.09,343.12012A77.18363,77.18363,0,0,0,304,408H184l-3.33-26.66992q-2.325-18.64527-3.5-37.40015-1.17-18.75-1.17-37.55A44.40266,44.40266,0,0,0,163,275a44.36,44.36,0,0,1-12.72-26.47l-3.2-28.84009L136,216a102.6959,102.6959,0,0,1-74.59-13.62012L32,184v-4.12012A163.95295,163.95295,0,0,1,80,64l3.46-13.82007A24.00278,24.00278,0,0,1,106.74,32H120a24,24,0,0,1,0,48H107.2L88,104l6.41,38.49h.01a28.0995,28.0995,0,0,1,13.73-3.59985c.63,0,1.27.01977,1.9.06982a28.00523,28.00523,0,0,1,23.14,15.41992L136,160l4.69-4.68994A38.65671,38.65671,0,0,1,152,147.47c.4-.17993.81-.36011,1.22-.53a38.62555,38.62555,0,0,1,42.09,8.37012L208,168a54.65212,54.65212,0,0,1,24-14.01V133.33008L224,136H208l-8-24H184l16-32V56l88-7.33008V144l24,24,13.09-9.82007.87-.6499a34.31269,34.31269,0,0,1,37.61-2.34009l7.25,4.13013a145.13808,145.13808,0,0,1,21.4-3.26h.01a147.38963,147.38963,0,0,1,23.68.08008A79.99719,79.99719,0,0,0,384,96l-24,8L344,88l8-32,48,16,10.46,8.72a336.01574,336.01574,0,0,1,64.64,71.93994,29.34177,29.34177,0,0,1,3.65,7.72A28.893,28.893,0,0,1,480,168.82007Z" style="fill:#fdc5ca"/><path d="M336,496v0a136.83736,136.83736,0,0,0-29.98533-85.48162L304,408H184v24l-16,64Z" style="fill:#68737f"/><path d="M176,24v8a24,24,0,0,0,24,24h32v0a83.40516,83.40516,0,0,0,44.48557,58.24275L288,120V24Z" style="fill:#ba8b5d"/><path d="M232,80l4.68629-4.68629a11.31372,11.31372,0,0,1,8-3.31371h0A11.31369,11.31369,0,0,1,256,83.3137v7.02945A13.65684,13.65684,0,0,1,252,100h0a13.65684,13.65684,0,0,1-9.65685,4H240Z" style="fill:#fdc5ca"/><path d="M129.14,78.18994h0A23.80514,23.80514,0,0,1,120,80H107.2L120,64l8.30233,6.64718A5.36816,5.36816,0,0,1,129.14,78.18994Z" style="fill:#fc979e"/><path d="M248.92682,229.68286a60.02946,60.02946,0,0,0,16.55951-7.71313l2.95068-1.9668-8.874-13.31445-2.95117,1.96777a43.44964,43.44964,0,0,1-38.08252,5.09961l-5.0586,15.17969a59.99888,59.99888,0,0,0,18.9878,3.10058c.16961,0,.33886-.00781.50842-.00927a49.78041,49.78041,0,0,1-27.36145,44.22607l-9.18311,4.5918,7.15528,14.31054,9.1831-4.59179A65.85537,65.85537,0,0,0,248.92682,229.68286Z"/><path d="M489.92383,148.46387a275.21655,275.21655,0,0,0-69.2749-71.5459l-15.999-11.42774a8.01683,8.01683,0,0,0-2.12011-1.08007l-48-16a8.00106,8.00106,0,0,0-10.291,5.64941l-8,32a8.00015,8.00015,0,0,0,2.10449,7.59766l16,16a8.00066,8.00066,0,0,0,8.18653,1.93261l19.88574-6.6289a72.47582,72.47582,0,0,1,24.4978,42.7312,155.77725,155.77725,0,0,0-34.77209,3.17407l-4.59681-2.62695a42.29293,42.29293,0,0,0-46.38134,2.88769L317.319,154.01l-.32147-.25708-.99646,1.24561-3.25061,2.438L296,140.68652V24a8.00008,8.00008,0,0,0-8-8H176a8.00008,8.00008,0,0,0-8,8v8a32.05723,32.05723,0,0,0,24,30.9873v7.124l-15.15527,30.31055a8.00009,8.00009,0,0,0,3.57763,10.73339l13.03614,6.51856,6.95214,20.85644A7.99967,7.99967,0,0,0,208,144h8v7.98242a62.40635,62.40635,0,0,0-7.64453,5.05957l-4.77094-4.771-.00982-.01026-2.6045-2.60449-.00024.00024a46.63612,46.63612,0,0,0-62.90356-2.7854,35.982,35.982,0,0,0-37.343-15.1936L96.47852,106.208,111.04492,88H120a32,32,0,0,0,0-64H106.73877A31.95351,31.95351,0,0,0,75.69385,48.23828L72.76953,59.93652A170.72953,170.72953,0,0,0,24,179.88184V184a7.99928,7.99928,0,0,0,3.76025,6.78418l29.40821,18.37988a110.30418,110.30418,0,0,0,78.27783,15.084l4.24481,1.415,2.639,23.75293a52.56476,52.56476,0,0,0,15.01806,31.24609A36.12623,36.12623,0,0,1,168,306.37793a614.54613,614.54613,0,0,0,4.72852,75.94629L176,408.5v22.51562l-15.76123,63.044,15.52246,3.88086,16-64A7.99868,7.99868,0,0,0,192,432V416H300.14587A129.29838,129.29838,0,0,1,328,496h16a145.35456,145.35456,0,0,0-31.73828-90.47852l-1.42352-1.77954a68.99745,68.99745,0,0,1-1.39191-57.47436l1.56689-3.65625a80.564,80.564,0,0,1,22.37305-30.01953A95.9444,95.9444,0,0,0,368,238.68945v-9.82324a82.86527,82.86527,0,0,0,75.6499-7.16113l35.59571-22.65137a36.17814,36.17814,0,0,0,10.67822-50.58984ZM184,32h96v75.05664a75.18689,75.18689,0,0,1-16.67932-11.40185A21.75308,21.75308,0,0,0,264,90.34277V83.31348A19.33544,19.33544,0,0,0,244.68652,64a19.56441,19.56441,0,0,0-2.20953.13647,75.46872,75.46872,0,0,1-2.63226-9.70483A7.99988,7.99988,0,0,0,232,48H200A16.01833,16.01833,0,0,1,184,32ZM470.65527,185.55566,435.06006,208.207A67.06944,67.06944,0,0,1,368,211.29736V200H352v38.68945a79.98623,79.98623,0,0,1-28.85742,61.61133,96.6444,96.6444,0,0,0-26.83545,36.00684l-1.5669,3.65625A84.96775,84.96775,0,0,0,292.07861,400H191.062l-2.45752-19.66016A598.60446,598.60446,0,0,1,184,306.37793a52.02258,52.02258,0,0,0-15.33789-37.0293,36.50234,36.50234,0,0,1-10.42969-21.70019l-1.85168-16.667A42.34751,42.34751,0,0,0,165.58594,232h7.9917a42.36011,42.36011,0,0,0,22.70361-6.58691l-8.5625-13.51563A26.38989,26.38989,0,0,1,173.57764,216h-7.9917a26.36018,26.36018,0,0,1-8.35547-1.35645l-18.70068-6.23339a8.00451,8.00451,0,0,0-4.09864-.25489A94.3621,94.3621,0,0,1,65.648,195.5957L40.00049,179.56641A154.84751,154.84751,0,0,1,85.65674,69.65723a8.00176,8.00176,0,0,0,2.10449-3.7168l3.45508-13.82129A15.97655,15.97655,0,0,1,106.73877,40H120a16.0012,16.0012,0,0,1,4.31885,31.4082l1.92822-2.41113a7.99979,7.99979,0,1,0-12.49414-9.99414l-32,40a8,8,0,0,0-1.644,6.3125l6.98632,41.916A10.96611,10.96611,0,0,1,76.27881,160H64v16H76.27881a26.92685,26.92685,0,0,0,26.90741-28.45264,19.93259,19.93259,0,0,1,22.84649,10.40674L128,161.88867v2.79785A35.31326,35.31326,0,0,0,163.31348,200H176V184H163.31348A19.31415,19.31415,0,0,1,144,164.68652v-1.3728l2.34375-2.344a30.62739,30.62739,0,0,1,43.313.001l2.60449,2.6045A26.24816,26.24816,0,0,1,200,182.25781V184h16v-1.74219a42.73171,42.73171,0,0,0-1.13141-9.75537A46.28823,46.28823,0,0,1,246.62744,160H248V144h-1.37256A63.07249,63.07249,0,0,0,232,145.719v-3.95337l18.52979-6.17578a8.00034,8.00034,0,0,0-5.05958-15.17968L222.70166,128h-8.93555l-6.17675-18.53027a7.99648,7.99648,0,0,0-4.01172-4.625l-8.84473-4.42285,12.42236-24.84376A7.99934,7.99934,0,0,0,208,72V64h17.68555c.77417,2.79932,1.69745,5.55518,2.73346,8.26709l-2.07575,2.07568,11.31348,11.31446,4.686-4.68653A3.31388,3.31388,0,0,1,248,83.31348v7.02929A5.65646,5.65646,0,0,1,242.34326,96H240v16h2.34326a21.49563,21.49563,0,0,0,11.5257-3.33643,91.14557,91.14557,0,0,0,19.03875,12.73487L280,124.94434V144a8.00076,8.00076,0,0,0,2.34326,5.65723l24,24a7.9966,7.9966,0,0,0,10.072,1.00488,32.49132,32.49132,0,0,1-2.072,43.68066l11.31348,11.31446a48.47475,48.47475,0,0,0,3.57538-64.58106l1.53106-1.14844a26.29441,26.29441,0,0,1,28.84278-1.79589l8.24218,4.71a26.4372,26.4372,0,0,1,12.04834,30.74609l15.25586,4.82422a42.484,42.484,0,0,0-6.46356-37.97315,139.46242,139.46242,0,0,1,42.08661,1.87452l7.65576,1.53125,3.1377-15.68946-7.65576-1.53125c-3.51862-.70361-7.06806-1.26782-10.634-1.72216A88.48568,88.48568,0,0,0,388.7998,89.59961a8.00041,8.00041,0,0,0-7.32959-1.18945l-19.30957,6.43652-9.30078-9.30078L357.666,66.32129,396.3291,79.209l15.02,10.72852a259.28338,259.28338,0,0,1,65.26221,67.40137,20.17929,20.17929,0,0,1-5.95606,28.21679Z"/><path d="M296,192V176a33.68722,33.68722,0,0,0-24.8858,10.86133,78.28225,78.28225,0,0,0-20.58441-10.45117l-5.05958,15.17968A62.11827,62.11827,0,0,1,288,250.59668v32.32617a61.79216,61.79216,0,0,1-18.21729,43.98047l-27.43945,27.43945,11.31348,11.31446,27.43945-27.43946A77.68875,77.68875,0,0,0,304,282.92285V250.59668a78.08148,78.08148,0,0,0-20.83722-53.168A17.77856,17.77856,0,0,1,296,192Z"/><rect x="264" y="464" width="16" height="32"/></g></svg>
